<svg xmlns="http://www.w3.org/2000/svg" viewBox="0 0 640 640" width="640" height="640" role="img">
  <rect width="640" height="640" fill="#FBFAF9"/>
  <circle cx="320" cy="326" r="218" fill="#D8232A" opacity="0.14"/>
  <circle cx="516" cy="124" r="84" fill="#D8232A" opacity="0.1"/>
  <circle cx="102" cy="544" r="62" fill="#111111" opacity="0.06"/>
  <g stroke-linejoin="round">
    <path d="M268 250h104v40c0 18 26 30 26 62v128a30 30 0 0 1-30 30H272a30 30 0 0 1-30-30V352c0-32 26-44 26-62z" fill="#fff" stroke="#111111" stroke-width="8"/>
    <rect x="270" y="176" width="100" height="60" rx="18" fill="#111111"/>
    <path d="M370 194h34a16 16 0 0 1 0 32h-34" fill="none" stroke="#111111" stroke-width="8" stroke-linecap="round"/>
    <rect x="272" y="390" width="96" height="76" rx="12" fill="#111111" opacity="0.25"/></g>
</svg>
